<?xml version="1.0" standalone="no"?>
<!DOCTYPE svg PUBLIC "-//W3C//DTD SVG 20010904//EN"
 "http://www.w3.org/TR/2001/REC-SVG-20010904/DTD/svg10.dtd">
<svg version="1.0" xmlns="http://www.w3.org/2000/svg"
 width="1024.000000pt" height="1024.000000pt" viewBox="0 0 1024.000000 1024.000000"
 preserveAspectRatio="xMidYMid meet">
<metadata>
Created by potrace 1.14, written by Peter Selinger 2001-2017
</metadata>
<g transform="translate(0.000000,1024.000000) scale(0.100000,-0.100000)"
fill="#000000" stroke="none">
<path d="M4935 10229 c-60 -4 -156 -7 -212 -8 -56 0 -105 -5 -108 -11 -3 -5
-23 -10 -44 -10 -22 0 -83 -9 -136 -20 -53 -11 -109 -20 -124 -20 -15 0 -31
-4 -37 -9 -5 -5 -58 -12 -119 -15 -60 -4 -111 -11 -113 -16 -2 -6 -17 -10 -33
-10 -17 0 -43 -7 -58 -15 -36 -18 -98 -34 -178 -45 -62 -9 -213 -56 -223 -70
-5 -7 -69 -24 -126 -34 -17 -3 -60 -19 -97 -36 -37 -16 -73 -30 -82 -30 -8 0
-15 -4 -15 -8 0 -4 -14 -9 -31 -10 -30 -2 -75 -22 -109 -48 -14 -11 -89 -40
-167 -67 -18 -5 -33 -14 -33 -19 0 -4 -9 -8 -20 -8 -11 0 -20 -4 -20 -8 0 -9
-97 -52 -117 -52 -6 0 -13 -4 -15 -9 -4 -11 -114 -71 -129 -71 -6 0 -28 -12
-48 -27 -50 -38 -78 -53 -99 -53 -11 0 -33 -13 -50 -30 -18 -16 -39 -30 -47
-30 -9 0 -13 -4 -10 -10 3 -5 1 -10 -6 -10 -6 0 -56 -27 -109 -60 -53 -33
-103 -60 -109 -60 -7 0 -10 -4 -7 -8 2 -4 -25 -28 -61 -53 -36 -24 -71 -49
-77 -54 -6 -6 -47 -37 -91 -70 -44 -32 -84 -64 -88 -72 -4 -7 -15 -13 -23 -13
-8 0 -12 -4 -9 -10 3 -5 -1 -10 -9 -10 -8 0 -19 -6 -23 -13 -4 -7 -21 -21 -36
-30 -16 -10 -45 -36 -66 -58 -21 -21 -41 -39 -45 -39 -3 0 -40 -34 -82 -75
-41 -41 -87 -84 -102 -97 -15 -13 -39 -38 -55 -56 -15 -19 -27 -31 -27 -27 0
4 -17 -15 -39 -42 -21 -26 -56 -66 -77 -89 -39 -41 -131 -146 -169 -191 -11
-14 -32 -38 -47 -54 -16 -16 -28 -33 -28 -37 0 -4 -14 -23 -30 -42 -38 -44
-42 -49 -62 -81 -9 -14 -23 -32 -30 -40 -8 -8 -17 -21 -21 -29 -15 -29 -32
-57 -47 -73 -31 -34 -40 -46 -40 -57 0 -5 -4 -10 -9 -10 -5 0 -13 -10 -17 -22
-4 -13 -22 -43 -40 -67 -19 -24 -46 -68 -60 -99 -14 -30 -37 -67 -50 -81 -13
-14 -24 -33 -24 -41 -1 -8 -12 -33 -25 -55 -14 -22 -29 -50 -34 -62 -5 -11
-15 -24 -20 -28 -6 -3 -11 -15 -11 -26 0 -10 -4 -19 -10 -19 -5 0 -10 -9 -10
-21 0 -18 -63 -135 -81 -149 -3 -3 -9 -18 -11 -35 -6 -34 -30 -97 -39 -105
-13 -11 -49 -86 -49 -103 0 -28 -31 -117 -41 -117 -5 0 -9 -5 -9 -12 0 -6 -6
-19 -14 -27 -7 -9 -21 -52 -30 -96 -10 -44 -23 -93 -31 -110 -53 -121 -61
-148 -74 -244 -5 -40 -15 -79 -20 -84 -8 -8 -11 -363 -11 -1164 0 -1134 0
-1153 20 -1188 11 -20 20 -43 20 -53 0 -9 7 -35 15 -57 8 -22 14 -60 15 -86 0
-25 4 -49 9 -55 8 -8 35 -80 36 -96 0 -3 3 -10 7 -14 5 -4 8 -16 8 -26 0 -11
4 -16 10 -13 5 3 12 -7 15 -22 12 -56 29 -108 40 -123 6 -8 12 -25 13 -37 0
-12 8 -37 16 -55 21 -45 46 -128 46 -155 0 -13 4 -23 9 -23 12 0 81 -144 81
-169 0 -12 5 -21 10 -21 6 0 10 -6 10 -14 0 -15 30 -77 42 -86 3 -3 16 -32 29
-65 12 -33 28 -64 35 -68 8 -4 14 -13 14 -19 0 -6 6 -19 13 -27 7 -9 22 -36
32 -61 11 -25 30 -56 43 -70 12 -14 25 -35 28 -47 4 -13 10 -23 15 -23 5 0 9
-6 9 -13 0 -8 8 -23 17 -35 47 -54 53 -63 53 -72 0 -6 4 -10 10 -10 5 0 12
-11 16 -25 3 -14 10 -25 15 -25 5 0 9 -6 9 -12 0 -7 16 -31 36 -52 20 -22 42
-53 50 -68 8 -15 19 -28 24 -28 6 0 10 -7 10 -15 0 -8 5 -15 11 -15 5 0 7 -4
4 -10 -3 -5 -1 -10 4 -10 6 0 11 -4 11 -10 0 -10 7 -19 58 -75 15 -17 43 -51
62 -75 19 -24 49 -58 65 -76 72 -76 115 -123 115 -129 0 -3 23 -28 50 -55 28
-28 48 -50 44 -50 -3 0 27 -30 67 -67 40 -38 92 -87 116 -110 23 -24 45 -43
48 -43 3 0 24 -18 46 -40 22 -22 42 -40 45 -40 2 0 13 -8 23 -18 47 -43 68
-60 96 -78 32 -20 67 -48 97 -77 10 -9 22 -17 28 -17 5 0 10 -4 10 -10 0 -5 6
-10 14 -10 8 0 16 -4 18 -8 1 -5 26 -23 53 -42 28 -19 55 -39 60 -46 26 -31
449 -293 504 -312 18 -6 50 -25 71 -42 21 -16 45 -30 54 -30 9 0 16 -4 16 -10
0 -5 9 -10 19 -10 21 0 84 -30 89 -42 2 -5 10 -8 17 -8 7 0 30 -9 52 -20 21
-11 65 -31 98 -45 33 -14 68 -30 77 -35 10 -6 25 -10 33 -10 9 0 34 -9 55 -20
22 -11 57 -28 78 -39 20 -10 59 -22 86 -26 27 -3 74 -20 105 -36 59 -30 157
-59 201 -59 14 0 35 -7 46 -15 10 -8 27 -15 37 -15 9 0 17 -4 17 -9 0 -8 25
-14 203 -42 39 -7 76 -16 82 -21 5 -4 19 -8 30 -8 12 0 40 -9 63 -20 32 -16
75 -22 184 -29 79 -5 170 -15 203 -24 139 -35 221 -39 740 -35 490 4 612 11
665 38 9 4 35 11 58 15 23 4 44 11 48 16 3 5 42 9 87 9 108 0 183 13 249 43
29 13 91 30 138 36 109 16 150 27 234 62 38 16 80 29 95 29 14 1 37 7 51 15
14 8 35 14 47 15 12 0 43 11 70 24 26 13 73 32 103 41 64 19 133 47 140 56 8
9 72 39 84 39 19 0 116 43 116 52 0 4 4 8 9 8 15 0 185 84 189 92 2 5 11 8 19
8 17 0 90 38 110 57 22 20 78 51 105 58 14 4 34 14 45 24 10 9 44 32 76 50 31
18 63 38 70 45 7 8 29 21 47 31 19 10 85 54 145 100 61 45 121 88 134 96 13 8
38 28 55 44 17 17 44 39 60 50 33 24 118 93 171 140 13 11 53 47 91 80 89 79
114 104 114 115 0 6 5 10 10 10 9 0 70 56 70 64 0 1 28 32 63 67 34 35 80 86
102 113 22 28 52 64 67 80 15 17 33 38 40 46 7 9 27 32 43 51 17 19 41 50 55
68 14 19 35 45 48 60 13 14 30 40 38 58 9 18 27 44 41 59 13 15 36 45 51 68
14 22 39 56 54 74 15 18 28 39 28 47 0 8 5 15 10 15 6 0 10 6 10 14 0 8 20 41
45 74 25 33 45 66 45 74 0 9 12 32 26 53 14 21 42 71 61 112 20 40 40 73 45
73 4 0 8 7 8 15 0 8 4 15 8 15 4 0 13 20 20 43 8 24 28 68 46 98 17 30 40 77
50 104 10 28 36 87 57 132 22 45 39 92 39 105 0 13 7 36 15 52 8 15 15 33 15
38 0 5 6 16 14 24 17 16 41 97 51 167 4 26 11 50 16 53 5 3 9 14 9 25 0 10 4
19 8 19 12 0 41 96 52 170 14 96 19 119 38 159 16 33 17 115 14 1115 -4 1032
-6 1119 -32 1211 -18 63 -30 114 -45 192 -8 40 -23 94 -35 120 -25 56 -42 108
-60 178 -16 63 -41 125 -52 125 -4 0 -8 8 -8 18 0 10 -4 22 -8 28 -5 5 -19 43
-32 84 -13 41 -26 77 -30 80 -14 12 -38 60 -59 120 -13 36 -27 67 -31 70 -4 3
-31 53 -59 111 -28 59 -59 117 -69 130 -10 13 -28 48 -42 77 -13 28 -27 52
-30 52 -4 0 -24 32 -44 71 -20 39 -47 82 -60 96 -13 14 -33 44 -45 68 -11 23
-31 53 -44 66 -12 14 -37 47 -54 75 -18 27 -45 63 -60 79 -16 17 -35 42 -43
57 -16 28 -76 101 -127 158 -34 37 -51 56 -111 129 -21 24 -55 63 -77 87 -22
23 -52 55 -66 71 -15 15 -70 69 -123 118 -54 50 -117 109 -141 133 -24 23 -48
42 -55 42 -6 0 -13 7 -16 15 -4 8 -10 12 -15 9 -5 -3 -9 0 -9 5 0 15 -29 42
-68 64 -18 10 -43 28 -56 40 -48 45 -87 77 -92 77 -5 0 -64 40 -74 50 -3 3
-23 18 -45 35 -22 16 -42 32 -45 36 -3 3 -20 14 -39 24 -19 9 -44 28 -56 41
-12 13 -30 24 -39 24 -9 0 -16 4 -16 10 0 5 -11 12 -24 16 -14 3 -27 12 -30
20 -3 8 -12 14 -20 14 -8 0 -16 3 -18 8 -1 4 -21 16 -43 27 -22 11 -60 34 -85
51 -25 18 -62 39 -83 48 -21 8 -59 29 -83 46 -25 16 -52 30 -60 30 -7 0 -14 5
-14 10 0 6 -7 10 -16 10 -9 0 -39 14 -66 30 -26 17 -55 30 -63 30 -7 0 -16 4
-19 9 -3 5 -18 12 -33 16 -15 3 -30 10 -33 13 -9 13 -75 42 -108 48 -18 4 -35
11 -38 15 -3 5 -16 9 -30 9 -13 0 -24 5 -24 10 0 6 -6 10 -14 10 -8 0 -16 4
-18 9 -4 11 -181 71 -209 71 -10 0 -19 3 -19 8 0 10 -92 42 -124 42 -14 0 -26
5 -26 10 0 6 -15 10 -34 10 -18 0 -59 11 -91 25 -56 25 -185 55 -236 55 -29 0
-131 30 -139 41 -3 3 -21 9 -40 12 -19 3 -55 10 -80 16 -25 5 -74 10 -109 11
-63 0 -111 7 -256 36 -38 7 -106 16 -150 20 -44 3 -84 10 -90 14 -9 6 -308 6
-360 -1 -11 -1 -33 0 -50 2 -16 2 -79 1 -140 -2z m630 -329 c33 -6 102 -13
153 -15 52 -3 102 -10 112 -15 10 -6 46 -10 79 -10 33 0 63 -4 66 -10 3 -5 32
-10 63 -10 31 0 73 -5 92 -10 19 -6 52 -12 74 -14 21 -3 43 -9 49 -15 6 -6 26
-11 44 -11 19 0 50 -7 71 -15 20 -9 46 -15 57 -14 11 1 34 -4 50 -10 17 -7 47
-15 68 -18 21 -3 40 -10 43 -14 3 -5 14 -9 24 -9 11 0 60 -13 110 -30 50 -16
97 -30 105 -30 8 0 15 -4 15 -10 0 -5 10 -10 23 -10 13 0 32 -7 43 -15 10 -8
31 -15 47 -15 15 0 27 -4 27 -10 0 -5 10 -10 23 -10 13 0 27 -4 33 -9 5 -4 39
-19 77 -31 37 -13 67 -27 67 -32 0 -4 7 -8 16 -8 9 0 28 -6 42 -14 15 -7 43
-20 62 -29 110 -47 166 -73 170 -78 3 -4 16 -10 30 -14 14 -4 41 -18 60 -30
19 -11 51 -27 70 -35 19 -8 37 -17 40 -20 5 -7 16 -13 107 -60 26 -14 50 -27
53 -30 13 -14 108 -70 118 -70 7 0 12 -4 12 -10 0 -5 4 -10 10 -10 5 0 33 -18
62 -40 29 -22 58 -40 64 -40 6 0 30 -18 54 -40 24 -22 48 -40 54 -40 12 0 51
-31 103 -80 17 -16 34 -30 38 -30 3 0 18 -11 33 -25 15 -14 32 -25 38 -25 6 0
36 -24 67 -52 31 -29 71 -64 89 -78 50 -39 118 -109 118 -121 0 -5 4 -8 9 -5
9 6 131 -105 131 -119 0 -5 31 -41 70 -79 95 -98 130 -136 123 -136 -3 0 6
-11 21 -25 15 -14 31 -25 37 -25 5 0 9 -8 9 -18 0 -9 20 -37 45 -61 25 -24 45
-50 45 -58 0 -8 12 -28 28 -43 42 -45 52 -58 52 -70 0 -6 7 -13 15 -16 8 -4
15 -14 15 -24 0 -10 7 -20 15 -24 8 -3 15 -11 15 -18 0 -8 14 -28 30 -46 17
-18 30 -40 30 -48 0 -15 8 -26 43 -65 9 -10 17 -23 17 -29 0 -5 5 -10 10 -10
6 0 10 -6 10 -14 0 -8 6 -21 13 -28 6 -7 23 -36 37 -63 14 -28 28 -51 33 -53
4 -2 7 -12 7 -23 0 -11 7 -22 15 -25 8 -4 15 -15 15 -25 0 -11 7 -22 15 -25 8
-4 15 -17 15 -30 0 -14 7 -27 15 -30 8 -4 15 -15 15 -26 0 -11 7 -26 15 -34 8
-9 15 -26 15 -39 0 -12 7 -25 15 -29 8 -3 15 -14 15 -24 0 -11 7 -25 15 -32 8
-7 15 -28 15 -46 0 -19 4 -34 10 -34 5 0 12 -11 16 -25 3 -13 12 -29 20 -36 8
-6 14 -24 14 -39 0 -16 7 -30 15 -34 9 -3 15 -18 15 -40 0 -19 4 -36 9 -38 6
-1 13 -19 16 -38 3 -19 10 -37 16 -38 5 -2 12 -21 15 -43 4 -21 10 -39 15 -39
5 0 9 -20 9 -44 0 -25 6 -48 14 -55 7 -6 16 -32 19 -58 3 -25 11 -50 19 -54 8
-5 14 -18 12 -31 -1 -13 -3 -27 -3 -32 -1 -6 -6 -5 -13 2 -7 7 -25 12 -40 12
-15 0 -28 5 -28 10 0 6 -11 10 -25 10 -16 0 -25 6 -25 15 0 10 -10 15 -29 15
-16 0 -31 6 -35 15 -3 8 -17 15 -31 15 -14 0 -25 5 -25 10 0 6 -15 10 -34 10
-18 0 -39 7 -46 15 -7 8 -23 15 -35 15 -13 0 -25 5 -27 11 -2 6 -21 13 -43 16
-22 3 -41 9 -43 14 -2 5 -16 9 -32 9 -15 0 -33 7 -40 15 -7 8 -27 15 -45 15
-19 0 -35 6 -37 12 -3 7 -18 11 -35 10 -17 -1 -36 4 -43 13 -7 8 -27 15 -45
15 -18 0 -39 7 -46 16 -9 11 -23 14 -46 11 -25 -4 -33 -2 -33 9 0 10 -12 14
-44 14 -30 0 -46 5 -50 15 -3 9 -18 15 -40 15 -19 0 -38 5 -41 10 -3 6 -20 10
-38 10 -51 0 -77 39 -77 116 0 38 -4 64 -12 66 -11 4 -12 18 -18 422 -3 147
-7 202 -17 211 -7 8 -13 35 -13 63 0 35 -4 52 -15 56 -8 3 -15 13 -15 22 0 17
-94 114 -110 114 -4 0 -10 4 -12 9 -1 6 -19 13 -38 16 -19 3 -40 11 -47 16 -8
7 -202 8 -613 3 -484 -5 -600 -4 -600 6 0 17 -751 10 -772 -7 -8 -7 -110 -14
-278 -18 -213 -5 -267 -9 -273 -21 -5 -9 -25 -14 -52 -14 -25 0 -45 -4 -45
-10 0 -5 -16 -10 -35 -10 -22 0 -38 -6 -41 -15 -4 -8 -18 -15 -34 -15 -15 0
-33 -7 -40 -15 -7 -8 -17 -15 -22 -15 -5 0 -19 -11 -32 -25 -13 -14 -26 -25
-30 -25 -19 0 -76 -85 -76 -115 0 -9 -7 -23 -15 -31 -9 -10 -15 -34 -15 -64 0
-27 -4 -52 -10 -55 -6 -3 -10 -52 -10 -110 0 -58 -4 -107 -10 -110 -5 -3 -10
1 -10 9 0 10 -9 16 -24 16 -13 0 -29 7 -36 15 -8 9 -30 15 -56 15 -24 0 -44 5
-44 10 0 6 -39 10 -98 10 -62 0 -102 4 -110 12 -15 15 -191 14 -220 -1 -11 -6
-41 -11 -66 -11 -26 0 -51 -6 -60 -15 -8 -8 -31 -15 -50 -15 -30 0 -37 4 -42
25 -3 14 -12 25 -20 25 -8 0 -14 10 -14 25 0 14 -7 28 -15 31 -8 4 -15 17 -15
30 0 13 -3 24 -7 24 -5 0 -36 27 -70 60 -59 56 -133 100 -167 100 -9 0 -16 5
-16 10 0 6 -20 10 -44 10 -24 0 -46 5 -48 11 -3 8 -162 11 -578 9 -316 -1
-595 -3 -620 -5 -25 -2 -166 -4 -315 -5 -199 -1 -278 -5 -302 -15 -45 -19
-452 -23 -509 -6 -52 17 -215 12 -222 -7 -2 -6 -20 -12 -41 -12 -39 0 -61 -15
-152 -102 -41 -39 -49 -53 -49 -83 0 -19 -4 -35 -10 -35 -13 0 -13 -143 0
-156 6 -6 12 -59 15 -119 4 -98 2 -111 -15 -127 -11 -10 -24 -18 -30 -18 -5 0
-10 -7 -10 -15 0 -9 -9 -15 -24 -15 -13 0 -26 -7 -30 -15 -3 -8 -12 -15 -21
-15 -8 0 -15 -4 -15 -9 0 -5 -10 -13 -22 -17 -13 -4 -25 -9 -28 -13 -13 -16
-71 -41 -94 -41 -14 0 -26 -4 -26 -10 0 -5 -16 -10 -35 -10 -22 0 -38 -6 -41
-15 -4 -8 -18 -15 -34 -15 -15 0 -33 -7 -40 -15 -7 -8 -23 -15 -36 -15 -12 0
-25 -4 -28 -9 -3 -5 -22 -12 -41 -15 -19 -4 -35 -11 -35 -16 0 -6 -13 -10 -29
-10 -16 0 -36 -7 -45 -15 -8 -8 -28 -15 -44 -15 -16 0 -35 -7 -42 -15 -7 -8
-25 -15 -41 -15 -15 0 -34 -7 -43 -15 -8 -8 -28 -15 -45 -15 -17 0 -31 -4 -31
-9 0 -5 -18 -11 -39 -15 -22 -3 -41 -9 -43 -13 -2 -6 -83 -50 -130 -71 -5 -2
-8 19 -8 46 0 35 4 52 15 56 9 3 15 18 15 38 0 18 7 42 15 52 8 11 15 29 15
40 0 12 7 30 15 40 8 11 15 28 15 39 0 10 7 25 15 33 8 9 15 29 15 45 0 16 5
29 10 29 6 0 10 9 10 19 0 11 7 26 15 35 8 8 15 21 15 28 0 7 14 40 30 73 16
33 30 72 30 88 0 15 4 27 9 27 5 0 27 35 48 78 21 42 41 79 46 80 4 2 7 15 7
28 0 15 6 24 15 24 8 0 15 9 15 19 0 11 7 26 15 35 8 8 15 21 15 29 0 8 7 20
15 27 8 7 15 18 15 26 0 7 10 24 23 38 12 13 33 46 47 72 14 27 33 58 43 69
10 11 30 41 45 67 15 27 30 48 35 48 4 0 7 6 7 14 0 8 7 16 15 20 8 3 15 13
15 22 0 9 11 27 25 40 14 13 25 27 25 32 0 9 47 68 72 91 10 9 18 20 18 26 0
5 25 36 55 67 30 31 55 61 55 66 0 9 76 92 85 92 9 0 65 60 65 70 0 10 56 66
196 195 47 44 102 97 121 117 20 21 41 35 47 31 6 -3 8 -3 4 2 -11 11 11 35
31 35 9 0 28 13 41 30 14 16 29 29 33 30 4 0 18 9 30 21 12 11 51 42 87 67 36
25 74 56 86 68 11 12 37 29 57 39 20 9 50 30 66 46 17 16 33 29 37 29 3 0 25
14 49 30 24 17 48 30 54 30 6 0 11 3 11 8 0 4 9 12 20 17 94 48 117 61 128 72
7 7 17 13 22 13 5 0 15 6 22 13 7 6 43 27 81 45 37 19 67 38 67 43 0 5 7 9 15
9 8 0 41 13 72 29 121 61 329 159 353 166 28 8 86 32 112 46 10 5 25 9 33 9 9
0 26 6 38 14 12 7 67 28 122 46 55 18 109 37 120 41 11 4 31 11 45 14 14 4 61
17 105 30 171 50 188 55 205 55 10 0 34 7 53 15 20 8 52 15 71 15 19 0 37 4
41 9 3 5 36 12 73 16 37 3 86 11 110 17 24 6 57 11 73 10 17 0 48 6 70 13 23
8 73 15 112 16 40 0 86 5 102 9 17 5 59 13 95 18 92 13 792 14 865 2z m2188
-2291 c509 -1 677 -4 677 -12 2 -46 10 -681 15 -1169 3 -380 2 -588 -4 -588
-6 0 -13 -16 -17 -35 -5 -27 -12 -37 -33 -41 -14 -4 -30 -10 -36 -14 -11 -8
-426 -16 -1295 -26 -418 -4 -533 -8 -563 -20 -21 -8 -73 -14 -121 -14 -62 0
-89 -4 -100 -15 -12 -12 -46 -15 -180 -15 -153 0 -168 2 -186 20 -11 11 -20
29 -20 41 0 11 -4 18 -9 14 -12 -7 -16 132 -19 675 -3 424 -6 492 -23 498 -5
2 -9 36 -9 75 0 83 -7 117 -24 117 -9 0 -13 51 -14 189 -3 187 -3 189 21 215
13 14 34 26 46 26 11 0 21 5 21 10 0 6 15 10 33 10 17 1 59 7 92 16 39 10 151
18 325 24 253 9 369 17 380 27 2 2 86 2 185 -2 99 -3 485 -6 858 -6z m-3933
-273 c422 -7 496 -11 504 -32 3 -8 12 -14 21 -14 8 0 15 -4 15 -8 0 -5 10 -19
21 -31 21 -23 25 -36 28 -94 0 -16 5 -26 11 -22 18 11 10 -47 -8 -64 -17 -15
-41 -60 -55 -103 -3 -9 1 -19 9 -22 9 -4 14 -21 14 -54 0 -32 5 -54 15 -62 11
-10 15 -36 15 -111 0 -65 5 -112 15 -137 13 -32 15 -82 11 -308 -4 -287 -14
-400 -35 -413 -7 -5 -13 -25 -14 -44 0 -20 -7 -39 -14 -41 -7 -3 -13 -12 -13
-21 0 -23 -96 -115 -120 -115 -11 0 -20 -7 -20 -15 0 -10 -10 -15 -30 -15 -16
0 -30 -4 -30 -10 0 -5 -11 -10 -25 -10 -14 0 -28 -7 -31 -15 -4 -8 -18 -15
-34 -15 -16 0 -35 -6 -42 -13 -8 -9 -50 -16 -113 -20 -55 -3 -113 -10 -128
-16 -16 -6 -65 -11 -110 -11 -45 0 -100 -5 -122 -11 -22 -6 -93 -15 -159 -19
-66 -4 -121 -12 -125 -18 -4 -7 -56 -12 -140 -13 -79 0 -150 -7 -175 -14 -61
-20 -513 -27 -556 -9 -21 9 -74 14 -151 14 -66 0 -127 4 -137 9 -37 20 -86 41
-96 41 -14 0 -56 50 -56 67 0 7 -4 13 -9 13 -5 0 -12 11 -15 25 -4 14 -11 25
-16 25 -6 0 -10 11 -10 25 0 14 -7 28 -15 31 -10 4 -15 20 -15 44 0 21 -6 45
-13 52 -8 7 -17 30 -21 50 -4 20 -12 38 -18 40 -9 3 -13 107 -16 388 -4 309
-7 386 -18 398 -11 10 -14 56 -14 213 0 168 -2 201 -15 205 -12 5 -15 29 -15
131 l0 125 108 -7 c113 -7 489 -7 544 0 146 19 264 25 613 31 220 4 402 8 404
10 2 2 7 2 10 0 3 -2 179 -7 391 -10z m1472 -337 c9 -5 30 -9 45 -9 39 0 89
-38 137 -105 16 -22 41 -52 57 -66 l27 -25 4 -471 c3 -362 7 -475 17 -487 7
-8 14 -46 16 -83 2 -37 9 -69 15 -71 5 -2 10 -13 10 -25 0 -12 9 -33 20 -47
11 -14 20 -31 20 -38 0 -21 125 -130 157 -138 13 -4 23 -10 23 -15 0 -5 10 -9
23 -9 13 0 29 -6 36 -12 16 -17 346 -17 376 -1 26 14 217 36 345 39 52 2 244
3 425 4 182 1 359 5 395 10 36 5 252 12 480 15 228 3 426 8 440 10 14 3 50 9
80 14 52 8 121 37 128 54 2 4 10 7 18 7 8 0 14 3 14 8 0 4 14 22 30 41 17 18
30 42 30 53 0 10 7 21 15 24 9 4 15 19 15 41 0 19 7 42 16 50 14 15 16 56 12
385 -2 203 -1 371 3 374 4 2 10 0 14 -6 3 -5 17 -10 30 -10 13 0 27 -4 30 -10
3 -5 21 -10 38 -10 18 0 41 -7 51 -15 11 -8 35 -15 53 -15 18 0 33 -4 33 -10
0 -5 13 -10 29 -10 16 0 42 -7 57 -15 16 -8 38 -15 49 -15 11 0 29 -7 39 -15
11 -8 32 -15 47 -15 15 0 31 -4 34 -10 3 -5 21 -10 39 -10 17 0 37 -5 44 -12
6 -6 26 -13 44 -15 18 -2 37 -8 42 -13 6 -6 18 -10 27 -10 9 0 30 -7 45 -15
16 -8 37 -15 47 -15 17 0 24 -3 85 -33 19 -9 45 -17 58 -17 13 0 24 -4 24 -10
0 -5 11 -10 24 -10 13 0 29 -7 36 -15 7 -8 20 -15 30 -15 10 0 23 -7 30 -15 7
-8 18 -15 24 -15 18 0 190 -90 207 -109 12 -12 19 -46 24 -107 4 -49 12 -95
18 -102 6 -7 9 -32 8 -55 -3 -63 10 -178 19 -172 13 8 20 -60 19 -190 -1 -78
3 -121 10 -123 14 -5 15 -42 1 -42 -5 0 -10 -6 -10 -14 0 -8 -7 -16 -15 -20
-8 -3 -15 -15 -15 -26 0 -12 -7 -28 -15 -36 -9 -9 -15 -34 -15 -60 0 -24 -4
-44 -10 -44 -5 0 -10 -16 -10 -35 0 -22 -6 -38 -15 -41 -8 -4 -15 -16 -15 -29
0 -12 -7 -28 -15 -35 -8 -7 -15 -25 -15 -40 0 -16 -7 -30 -15 -34 -9 -3 -15
-18 -15 -40 0 -21 -6 -36 -15 -40 -8 -3 -15 -16 -15 -30 0 -14 -7 -31 -15 -40
-8 -8 -15 -26 -15 -39 0 -14 -3 -27 -7 -29 -11 -5 -43 -67 -43 -84 0 -8 -7
-17 -15 -20 -8 -4 -15 -15 -15 -25 0 -11 -7 -22 -15 -25 -8 -4 -15 -17 -15
-30 0 -15 -6 -24 -15 -24 -8 0 -15 -7 -15 -15 0 -8 -4 -15 -10 -15 -5 0 -10
-11 -10 -25 0 -16 -6 -25 -15 -25 -9 0 -15 -9 -15 -23 0 -22 -31 -57 -50 -57
-6 0 -10 -9 -10 -20 0 -12 -13 -34 -30 -50 -16 -16 -30 -36 -30 -45 0 -9 -7
-18 -15 -21 -8 -4 -15 -12 -15 -20 0 -8 -4 -14 -10 -14 -5 0 -10 -6 -10 -12 0
-7 -14 -27 -30 -45 -17 -18 -30 -39 -30 -48 0 -8 -7 -18 -15 -21 -8 -4 -15
-15 -15 -25 0 -10 -13 -32 -30 -49 -16 -17 -30 -35 -30 -41 0 -5 -11 -20 -25
-33 -14 -13 -25 -27 -25 -32 0 -10 -151 -166 -228 -235 -21 -20 -49 -40 -61
-44 -11 -3 -21 -11 -21 -16 0 -5 -7 -9 -15 -9 -8 0 -15 -7 -15 -15 0 -8 -7
-15 -15 -15 -8 0 -15 -4 -15 -10 0 -5 -7 -10 -15 -10 -9 0 -18 -7 -21 -15 -4
-8 -15 -15 -25 -15 -11 0 -22 -7 -25 -15 -4 -8 -11 -15 -16 -15 -6 0 -20 -10
-32 -23 -12 -13 -28 -26 -36 -30 -28 -13 -55 -32 -63 -44 -4 -7 -16 -13 -26
-13 -10 0 -30 -11 -45 -25 -15 -14 -34 -25 -42 -25 -8 0 -17 -7 -20 -15 -4 -8
-12 -15 -20 -15 -8 0 -14 -4 -14 -10 0 -5 -12 -13 -27 -16 -16 -4 -38 -18 -50
-31 -12 -12 -28 -23 -36 -23 -8 0 -20 -6 -26 -14 -7 -8 -23 -17 -36 -20 -14
-4 -25 -11 -25 -16 0 -6 -11 -10 -25 -10 -14 0 -25 -4 -25 -10 0 -5 -9 -10
-19 -10 -11 0 -26 -6 -33 -13 -7 -8 -31 -17 -53 -20 -22 -4 -41 -11 -43 -17
-2 -6 -39 -10 -85 -10 -56 -1 -88 -5 -101 -15 -26 -20 -362 -22 -368 -3 -3 8
-26 11 -70 10 -51 -2 -67 1 -72 13 -3 10 -18 15 -41 15 -20 0 -43 7 -51 15 -9
8 -28 15 -44 15 -16 0 -32 5 -35 10 -3 6 -22 10 -41 10 -20 0 -42 7 -50 15 -9
8 -31 15 -50 15 -19 0 -34 5 -34 10 0 6 -18 10 -40 10 -27 0 -43 5 -46 15 -4
10 -20 15 -44 15 -21 0 -40 5 -42 11 -2 5 -22 13 -46 16 -23 3 -42 10 -42 14
0 5 -16 9 -35 9 -19 0 -43 4 -53 9 -47 26 -87 41 -109 41 -13 0 -26 6 -29 13
-2 7 -23 14 -46 16 -22 1 -47 8 -55 16 -8 8 -23 15 -34 15 -10 0 -19 5 -19 10
0 6 -11 10 -24 10 -13 0 -26 5 -28 11 -2 5 -22 13 -46 16 -23 3 -42 9 -42 14
0 4 -13 10 -30 14 -16 4 -30 11 -30 16 0 5 -17 9 -37 9 -21 0 -47 7 -57 15
-11 8 -32 15 -48 15 -15 0 -28 5 -28 10 0 6 -17 10 -38 10 -21 0 -43 5 -49 11
-6 6 -41 14 -77 16 -36 3 -66 10 -66 15 0 15 -492 6 -498 -9 -3 -10 -38 -13
-132 -13 -101 0 -130 -3 -140 -15 -10 -12 -38 -15 -135 -15 -100 0 -124 -3
-129 -15 -4 -11 -21 -15 -65 -15 -33 0 -63 -4 -66 -10 -3 -5 -27 -10 -52 -10
-27 0 -53 -6 -63 -15 -9 -8 -34 -17 -56 -20 -21 -2 -40 -9 -42 -15 -2 -5 -14
-10 -27 -10 -12 0 -25 -7 -29 -15 -3 -8 -18 -15 -34 -15 -15 0 -37 -7 -48 -15
-10 -8 -29 -15 -41 -15 -13 0 -23 -4 -23 -10 0 -5 -9 -10 -20 -10 -12 0 -33
-6 -48 -14 -15 -7 -44 -16 -64 -20 -21 -4 -38 -11 -38 -16 0 -6 -17 -10 -39
-10 -22 0 -44 -6 -51 -15 -7 -8 -27 -15 -45 -15 -18 0 -38 -7 -45 -15 -7 -8
-28 -15 -46 -15 -19 0 -34 -4 -34 -10 0 -5 -9 -10 -19 -10 -11 0 -26 -6 -33
-13 -7 -8 -26 -17 -41 -21 -15 -3 -27 -11 -27 -16 0 -6 -11 -10 -24 -10 -13 0
-26 -6 -29 -14 -3 -7 -19 -16 -36 -19 -17 -4 -40 -16 -51 -27 -11 -11 -26 -20
-34 -20 -7 0 -19 -7 -26 -15 -7 -8 -18 -15 -25 -15 -7 0 -18 -7 -25 -15 -7 -8
-23 -15 -36 -15 -13 0 -24 -4 -24 -10 0 -5 -9 -10 -19 -10 -11 0 -26 -7 -35
-15 -8 -8 -26 -15 -39 -15 -14 0 -27 -7 -31 -15 -3 -9 -18 -15 -35 -15 -16 0
-36 -7 -45 -15 -8 -8 -26 -15 -40 -15 -14 0 -26 -4 -26 -10 0 -5 -10 -10 -23
-10 -13 0 -32 -7 -43 -15 -10 -8 -29 -15 -42 -15 -12 0 -25 -7 -28 -15 -4 -10
-20 -15 -44 -15 -21 0 -42 -6 -48 -13 -11 -13 -86 -20 -232 -21 -51 -1 -65 2
-65 14 0 8 -7 15 -15 15 -8 0 -15 -7 -15 -15 0 -12 -22 -14 -140 -11 -77 1
-141 7 -143 12 -2 5 -20 9 -40 9 -20 0 -46 7 -56 15 -11 8 -31 15 -44 15 -13
0 -30 7 -38 15 -9 8 -24 15 -35 15 -10 0 -19 5 -19 10 0 6 -11 10 -24 10 -25
0 -88 29 -94 43 -2 4 -14 7 -27 7 -12 0 -25 7 -29 15 -3 8 -17 15 -31 15 -14
0 -28 6 -31 13 -2 7 -14 14 -27 14 -12 1 -23 7 -25 13 -2 5 -17 10 -33 10 -17
0 -29 5 -29 13 0 7 -20 21 -45 32 -25 11 -45 23 -45 28 0 4 -5 7 -11 7 -6 0
-17 7 -25 15 -9 8 -24 15 -35 15 -10 0 -19 5 -19 10 0 6 -11 10 -25 10 -14 0
-28 7 -31 15 -4 8 -16 15 -29 15 -13 0 -25 7 -29 15 -3 8 -17 15 -31 15 -14 0
-25 5 -25 10 0 6 -7 10 -15 10 -8 0 -15 4 -15 10 0 5 -12 13 -28 16 -15 4 -37
18 -49 31 -12 12 -30 23 -40 23 -10 0 -29 12 -42 25 -13 14 -34 28 -47 31 -13
3 -24 10 -24 15 0 5 -7 9 -15 9 -8 0 -15 7 -15 15 0 8 -5 15 -10 15 -6 0 -21
10 -33 23 -27 28 -72 57 -88 57 -6 0 -21 10 -33 23 -12 12 -39 31 -61 42 -22
11 -50 30 -62 43 -12 12 -25 22 -29 22 -4 0 -14 8 -23 18 -9 9 -38 33 -66 52
-27 19 -59 45 -70 58 -11 14 -39 44 -62 68 -24 25 -43 47 -43 49 0 9 -40 45
-50 45 -5 0 -10 4 -10 9 0 15 -103 121 -117 121 -25 0 -53 34 -53 65 0 17 -6
39 -14 50 -7 11 -13 35 -14 53 0 18 -5 39 -10 45 -5 7 -12 43 -15 81 -4 37
-11 73 -15 80 -5 6 -12 43 -15 81 -2 39 -12 84 -21 100 -12 22 -16 57 -16 133
0 56 -4 102 -9 102 -15 0 -21 103 -23 468 -2 255 0 355 8 360 8 4 12 49 13
122 1 63 6 117 12 120 5 4 12 43 16 88 3 45 10 82 14 82 5 0 9 24 9 54 0 48 3
55 32 77 17 13 44 36 59 52 15 15 32 27 38 27 6 0 11 5 11 10 0 6 7 10 15 10
8 0 24 9 35 20 11 11 29 20 39 20 11 0 21 3 23 8 6 14 129 72 153 72 14 0 25
5 25 10 0 6 6 10 13 10 20 0 152 44 155 52 2 5 19 8 37 8 18 0 35 5 37 11 2 5
19 14 38 19 54 13 109 35 122 48 7 7 22 12 35 12 13 0 23 4 23 10 0 5 18 13
40 16 22 4 43 11 46 15 3 5 20 9 38 9 19 0 39 7 46 15 7 8 20 15 29 15 9 0 25
7 35 15 11 8 28 15 38 15 10 0 18 4 18 8 0 5 18 17 40 27 23 10 45 26 50 34 5
9 11 14 13 11 3 -3 7 -160 9 -349 2 -264 6 -345 16 -349 8 -2 12 -24 12 -62 0
-39 5 -64 15 -74 8 -8 15 -30 15 -48 0 -18 9 -46 20 -63 11 -16 20 -42 20 -57
0 -14 5 -28 11 -30 5 -2 12 -15 13 -28 5 -34 16 -60 27 -60 5 0 9 -8 9 -19 0
-10 7 -24 15 -31 8 -7 15 -19 15 -26 0 -8 12 -28 28 -46 85 -97 116 -128 127
-128 8 0 15 -4 17 -8 7 -17 76 -62 96 -62 12 0 25 -6 29 -14 8 -14 40 -20 208
-36 55 -5 134 -14 175 -19 42 -6 144 -8 230 -5 85 3 200 7 255 9 55 1 127 6
160 9 33 4 103 11 155 16 52 6 122 14 155 19 33 5 90 10 127 10 37 1 69 5 72
10 3 5 56 12 118 16 62 4 122 9 133 11 11 2 45 6 75 9 118 12 156 17 172 26 9
5 27 9 40 9 13 0 35 6 49 14 14 7 37 16 52 20 15 3 27 11 27 16 0 6 11 10 25
10 14 0 25 4 25 9 0 5 14 12 30 16 17 4 30 11 30 16 0 5 8 9 18 9 11 0 32 11
47 24 16 14 31 25 34 24 14 -1 51 15 51 22 0 4 11 11 25 14 14 4 25 11 25 16
0 6 5 10 11 10 23 0 79 71 79 100 0 15 7 30 15 34 8 3 15 16 15 30 0 13 7 26
15 30 9 3 15 18 15 39 0 19 7 40 15 47 9 8 15 30 15 56 0 24 5 44 10 44 6 0
10 33 10 80 0 67 3 80 16 80 15 0 16 36 12 423 -4 378 -6 425 -22 449 -19 28
-24 23 79 81 11 6 40 14 65 17 62 9 411 0 432 -11z m4857 -2286 c0 -11 -3 -13
-6 -5 -2 6 -10 9 -15 6 -7 -4 -8 -2 -4 4 11 18 26 14 25 -5z m-195 -1044 c-3
-5 -10 -7 -15 -3 -5 3 -7 10 -3 15 3 5 10 7 15 3 5 -3 7 -10 3 -15z m-9514
-119 c0 -5 -4 -10 -10 -10 -5 0 -10 5 -10 10 0 6 5 10 10 10 6 0 10 -4 10 -10z
m601 -977 c13 -16 12 -17 -3 -4 -10 7 -18 15 -18 17 0 8 8 3 21 -13z m5879
-53 c0 -5 -5 -10 -11 -10 -5 0 -7 5 -4 10 3 6 8 10 11 10 2 0 4 -4 4 -10z
m-5470 -360 c0 -5 -2 -10 -4 -10 -3 0 -8 5 -11 10 -3 6 -1 10 4 10 6 0 11 -4
11 -10z m57 -26 c9 -9 4 -13 -21 -18 -18 -4 -41 -4 -50 0 -9 3 -24 0 -34 -7
-14 -11 -13 -9 2 9 20 23 46 30 46 12 0 -5 7 -10 16 -10 9 0 14 6 11 13 -6 17
15 18 30 1z m-192 -104 c3 -5 1 -10 -4 -10 -6 0 -11 5 -11 10 0 6 2 10 4 10 3
0 8 -4 11 -10z m145 -160 c0 -5 -4 -10 -10 -10 -5 0 -10 5 -10 10 0 6 5 10 10
10 6 0 10 -4 10 -10z m7390 -30 c0 -5 -5 -10 -11 -10 -5 0 -7 5 -4 10 3 6 8
10 11 10 2 0 4 -4 4 -10z m-6920 -390 c0 -5 -5 -10 -11 -10 -5 0 -7 5 -4 10 3
6 8 10 11 10 2 0 4 -4 4 -10z m30 -30 c0 -5 -4 -10 -10 -10 -5 0 -10 5 -10 10
0 6 5 10 10 10 6 0 10 -4 10 -10z m6380 -40 c0 -5 -4 -10 -10 -10 -5 0 -10 5
-10 10 0 6 5 10 10 10 6 0 10 -4 10 -10z m-6205 -90 c3 -5 1 -10 -4 -10 -6 0
-11 5 -11 10 0 6 2 10 4 10 3 0 8 -4 11 -10z m115 -80 c0 -5 -4 -10 -10 -10
-5 0 -10 5 -10 10 0 6 5 10 10 10 6 0 10 -4 10 -10z m120 -80 c0 -5 -4 -10
-10 -10 -5 0 -10 5 -10 10 0 6 5 10 10 10 6 0 10 -4 10 -10z m90 -50 c0 -5 -4
-10 -10 -10 -5 0 -10 5 -10 10 0 6 5 10 10 10 6 0 10 -4 10 -10z m80 -50 c0
-5 -5 -10 -11 -10 -5 0 -7 5 -4 10 3 6 8 10 11 10 2 0 4 -4 4 -10z m145 -80
c3 -5 1 -10 -4 -10 -6 0 -11 5 -11 10 0 6 2 10 4 10 3 0 8 -4 11 -10z m155
-80 c0 -5 -4 -10 -10 -10 -5 0 -10 5 -10 10 0 6 5 10 10 10 6 0 10 -4 10 -10z
m170 -80 c0 -5 -4 -10 -10 -10 -5 0 -10 5 -10 10 0 6 5 10 10 10 6 0 10 -4 10
-10z m120 -50 c0 -5 -4 -10 -10 -10 -5 0 -10 5 -10 10 0 6 5 10 10 10 6 0 10
-4 10 -10z m60 -30 c0 -5 -4 -10 -10 -10 -5 0 -10 5 -10 10 0 6 5 10 10 10 6
0 10 -4 10 -10z m140 -50 c0 -5 -4 -10 -10 -10 -5 0 -10 5 -10 10 0 6 5 10 10
10 6 0 10 -4 10 -10z m297 -106 c-3 -3 -12 -4 -19 -1 -8 3 -5 6 6 6 11 1 17
-2 13 -5z m83 -24 c0 -5 -4 -10 -10 -10 -5 0 -10 5 -10 10 0 6 5 10 10 10 6 0
10 -4 10 -10z m320 -80 c0 -5 -4 -10 -10 -10 -5 0 -10 5 -10 10 0 6 5 10 10
10 6 0 10 -4 10 -10z m115 -20 c3 -5 -1 -10 -9 -10 -9 0 -16 5 -16 10 0 6 4
10 9 10 6 0 13 -4 16 -10z m310 -50 c3 -5 -1 -10 -10 -10 -9 0 -13 5 -10 10 3
6 8 10 10 10 2 0 7 -4 10 -10z m207 -32 c-9 -9 -15 -9 -24 0 -9 9 -7 12 12 12
19 0 21 -3 12 -12z m373 -18 c3 -5 -1 -10 -9 -10 -9 0 -16 5 -16 10 0 6 4 10
9 10 6 0 13 -4 16 -10z"/>
<path d="M4380 9793 c-22 -9 -60 -52 -60 -67 0 -36 14 -76 27 -76 8 0 24 -10
36 -23 37 -38 55 -48 89 -54 18 -3 35 -8 38 -11 12 -17 113 -42 164 -42 31 0
56 -4 56 -10 0 -6 76 -10 209 -10 166 0 215 3 237 15 16 8 45 15 64 15 33 0
121 28 136 43 4 4 16 7 26 7 20 0 32 8 84 56 68 63 31 144 -65 144 -34 0 -51
-5 -55 -15 -3 -8 -16 -15 -30 -15 -13 0 -26 -7 -30 -15 -3 -9 -18 -15 -39 -15
-18 0 -37 -4 -42 -9 -6 -5 -55 -12 -110 -15 -55 -4 -113 -9 -130 -12 -60 -10
-328 4 -336 18 -4 5 -23 10 -43 10 -23 0 -40 5 -43 14 -3 8 -16 14 -29 14 -14
0 -27 7 -30 15 -4 8 -12 15 -19 15 -7 0 -15 5 -17 10 -4 13 -67 22 -88 13z"/>
<path d="M5720 9293 c-19 -3 -39 -9 -44 -14 -6 -5 -36 -9 -68 -9 -43 0 -60 -4
-64 -15 -4 -9 -19 -15 -39 -15 -18 0 -38 -7 -45 -15 -8 -9 -30 -15 -59 -15
-26 0 -52 -5 -59 -12 -6 -6 -45 -13 -87 -15 -43 -2 -85 -9 -98 -17 -18 -12
-108 -15 -505 -18 -346 -2 -485 -6 -490 -14 -4 -7 -42 -13 -86 -16 -51 -2 -81
-8 -84 -16 -2 -7 -16 -12 -31 -12 -15 0 -36 -7 -47 -15 -10 -8 -26 -15 -34
-15 -8 0 -27 -11 -42 -25 -15 -14 -36 -25 -47 -25 -27 0 -81 -30 -110 -62 -14
-16 -33 -28 -42 -28 -9 0 -19 -7 -23 -15 -3 -8 -12 -15 -21 -15 -11 0 -15 -12
-15 -51 0 -42 3 -52 20 -56 11 -3 20 -9 20 -14 0 -15 87 -10 104 6 8 8 19 15
25 15 6 0 11 5 11 10 0 6 9 10 19 10 11 0 26 7 35 15 8 8 21 15 30 15 8 0 18
5 21 10 10 16 134 71 174 77 20 3 41 9 46 14 6 4 77 10 159 14 82 4 160 11
173 16 13 5 135 9 271 10 338 1 610 13 624 27 7 7 36 12 65 12 29 0 53 4 53 8
0 5 25 14 55 21 30 7 57 17 60 22 4 5 24 9 46 9 24 0 38 4 34 10 -3 6 -3 10 2
10 4 0 123 3 264 7 191 4 265 3 290 -6 30 -11 46 -15 93 -24 6 -1 17 -8 24
-14 7 -7 22 -13 33 -13 10 0 19 -4 19 -8 0 -4 17 -14 38 -21 20 -8 45 -22 55
-32 10 -11 26 -19 37 -19 10 0 21 -4 24 -9 7 -10 56 9 56 22 0 5 5 5 10 2 6
-4 10 20 10 64 0 56 -3 71 -15 71 -8 0 -15 5 -15 10 0 6 -9 10 -19 10 -11 0
-32 11 -46 24 -15 14 -40 28 -56 31 -16 4 -29 11 -29 16 0 5 -11 9 -25 9 -14
0 -25 4 -25 10 0 5 -16 12 -37 16 -20 4 -48 13 -62 20 -14 8 -47 14 -73 14
-26 0 -50 5 -53 10 -6 10 -327 12 -405 3z"/>
<path d="M5831 8413 c-33 -13 -51 -44 -51 -86 0 -37 5 -49 33 -74 19 -17 44
-34 55 -38 12 -3 22 -11 22 -16 0 -5 9 -9 20 -9 11 0 20 -4 20 -10 0 -5 9 -10
19 -10 11 0 23 -4 26 -10 3 -5 16 -10 28 -10 13 0 31 -6 42 -14 11 -7 36 -17
55 -21 19 -4 40 -11 45 -15 6 -5 42 -11 80 -14 213 -16 278 -24 283 -33 4 -6
50 -11 102 -12 52 -1 97 -6 100 -10 3 -5 71 -9 151 -10 108 -1 159 3 192 14
56 19 479 25 485 6 5 -14 62 -15 62 -1 0 6 3 9 8 8 19 -6 52 38 52 69 0 31
-28 73 -49 73 -5 0 -14 7 -21 15 -8 10 -30 15 -61 15 -26 0 -51 5 -54 10 -8
13 -252 13 -257 0 -5 -15 -593 -26 -602 -11 -4 7 -39 11 -89 11 -52 1 -91 6
-107 15 -16 9 -55 14 -105 15 -45 0 -85 4 -90 9 -6 5 -29 11 -53 14 -23 2 -48
9 -54 15 -7 7 -27 12 -45 12 -18 0 -33 5 -33 10 0 6 -9 10 -19 10 -11 0 -26 7
-35 15 -8 8 -19 15 -24 15 -5 0 -14 11 -22 24 -16 32 -68 45 -109 29z"/>
<path d="M4220 8380 c0 -5 -5 -10 -11 -10 -20 0 -48 -45 -49 -77 0 -23 -5 -33
-15 -33 -8 0 -15 -4 -15 -10 0 -5 -11 -12 -25 -16 -14 -3 -25 -10 -25 -15 0
-5 -12 -9 -28 -9 -15 0 -36 -6 -47 -14 -13 -9 -66 -15 -155 -19 -160 -7 -173
-9 -182 -22 -5 -6 -8 -5 -8 2 0 10 -35 12 -47 3 -4 -3 -42 -3 -45 0 -8 6 -88
4 -88 -3 0 -5 -6 -5 -12 -1 -16 10 -48 13 -48 4 0 -10 -39 -9 -45 1 -4 5 -12
6 -18 2 -18 -11 -177 -9 -177 2 0 7 -3 7 -8 0 -4 -6 -87 -11 -202 -13 -301 -4
-432 -12 -457 -28 -12 -8 -35 -14 -51 -14 -16 0 -35 -7 -42 -15 -7 -8 -23 -15
-35 -15 -12 0 -28 -7 -35 -15 -7 -8 -23 -15 -36 -15 -14 0 -32 -4 -42 -9 -9
-5 -41 -20 -69 -32 -29 -13 -53 -27 -53 -31 0 -5 -9 -8 -20 -8 -11 0 -20 -7
-20 -15 0 -9 -9 -15 -25 -15 -14 0 -25 -4 -25 -10 0 -5 -12 -13 -27 -16 -25
-7 -43 -20 -99 -71 -51 -47 -15 -151 51 -148 37 2 77 18 94 39 7 9 20 16 27
16 8 0 14 5 14 10 0 6 7 10 15 10 8 0 24 9 35 20 11 11 24 20 30 20 5 0 29 11
52 24 24 13 55 26 71 30 15 3 27 11 27 16 0 6 14 10 30 10 17 0 30 5 30 10 0
6 13 10 29 10 16 0 34 7 41 15 7 8 26 15 42 15 16 0 44 7 64 15 29 12 129 15
557 20 595 6 761 11 785 24 9 5 42 12 72 15 30 4 57 11 58 16 2 6 14 10 28 10
26 0 144 58 144 72 0 4 5 8 11 8 15 0 79 68 79 84 0 7 7 19 15 26 22 18 20
102 -3 123 -10 10 -24 17 -30 17 -7 0 -12 5 -12 10 0 6 -16 10 -35 10 -19 0
-35 -4 -35 -10z"/>
<path d="M7077 7383 c-58 -15 -75 -87 -32 -136 24 -27 142 -87 171 -87 8 0 14
-4 14 -10 0 -6 42 -10 108 -10 116 0 121 2 165 72 23 37 22 41 -17 82 l-33 36
-112 0 c-66 0 -111 4 -111 10 0 5 -12 13 -27 16 -15 4 -34 13 -41 21 -13 13
-49 15 -85 6z"/>
<path d="M6372 7250 c-20 -33 -12 -158 9 -144 5 3 9 -3 9 -13 1 -21 44 -73 61
-73 6 0 8 -7 5 -16 -3 -9 -6 -18 -6 -20 0 -2 -7 -4 -15 -4 -8 0 -15 -6 -15
-14 0 -8 -11 -17 -25 -20 -14 -4 -25 -11 -25 -16 0 -6 -7 -10 -15 -10 -8 0
-15 -3 -15 -7 0 -5 -14 -17 -30 -28 -16 -11 -30 -26 -30 -32 0 -7 -7 -13 -15
-13 -8 0 -15 -7 -15 -15 0 -8 -4 -15 -10 -15 -5 0 -12 -11 -16 -24 -3 -14 -12
-27 -20 -30 -21 -8 -20 -189 1 -210 8 -8 15 -24 15 -36 0 -11 7 -23 15 -26 8
-4 15 -15 15 -26 0 -19 113 -138 131 -138 5 0 33 -16 63 -34 29 -19 66 -38 82
-42 16 -4 35 -11 42 -17 6 -5 12 -7 12 -3 0 4 13 0 30 -9 16 -8 39 -15 52 -15
13 0 36 -7 52 -15 15 -8 50 -15 77 -15 27 0 49 -4 49 -10 0 -5 22 -10 49 -10
27 0 62 -5 78 -11 16 -6 116 -13 235 -15 174 -3 209 -1 216 11 4 9 29 17 61
20 29 3 61 10 71 15 10 6 28 10 39 10 12 0 21 5 21 10 0 6 5 10 11 10 12 0 67
23 114 47 44 23 115 98 115 121 0 11 7 22 15 26 12 4 15 24 15 91 0 72 -3 88
-19 102 -11 9 -17 22 -14 30 5 14 -13 48 -42 77 -9 9 -18 22 -19 30 -2 17 -61
76 -75 76 -6 0 -11 7 -11 15 0 8 -5 15 -11 15 -7 0 -22 11 -35 25 -13 14 -28
25 -34 25 -5 0 -10 4 -10 10 0 5 -12 13 -27 16 -16 4 -38 18 -50 31 -12 12
-34 23 -48 23 -14 0 -25 4 -25 8 0 11 -90 49 -97 42 -2 -3 -9 3 -14 13 -6 9
-21 17 -34 17 -14 0 -25 5 -25 10 0 6 -11 10 -25 10 -14 0 -28 7 -31 15 -4 8
-17 15 -30 15 -14 0 -27 7 -30 15 -4 9 -19 15 -39 15 -19 0 -37 5 -40 10 -10
16 -159 12 -191 -5 -33 -17 -284 -22 -284 -6 0 5 -9 13 -21 16 -29 9 -59 36
-59 53 0 8 -16 29 -35 48 -29 28 -43 34 -78 34 -31 0 -45 -5 -55 -20z m712
-285 c3 -9 19 -15 41 -15 19 0 35 -4 35 -10 0 -5 7 -10 15 -10 9 0 18 -7 21
-15 4 -8 17 -15 30 -15 14 0 27 -7 30 -15 4 -9 19 -15 36 -15 17 0 27 -4 23
-10 -4 -6 6 -10 23 -10 17 0 32 -6 36 -15 3 -8 16 -15 30 -15 13 0 26 -7 30
-15 3 -8 14 -15 24 -15 11 0 31 -11 46 -25 15 -14 29 -25 32 -25 14 0 134
-130 134 -144 0 -9 7 -16 15 -16 12 0 15 -15 15 -72 0 -64 -3 -76 -24 -95 -13
-13 -29 -23 -35 -23 -6 0 -11 -4 -11 -10 0 -5 -10 -10 -22 -10 -13 0 -32 -7
-42 -15 -11 -8 -31 -15 -45 -15 -14 0 -35 -7 -45 -15 -13 -10 -43 -15 -83 -15
-35 0 -63 -4 -63 -9 0 -13 -190 -20 -225 -8 -16 5 -66 13 -110 18 -106 10
-206 27 -227 39 -10 6 -36 10 -58 10 -22 0 -40 5 -40 10 0 6 -13 10 -29 10
-17 0 -33 4 -36 10 -3 5 -24 14 -45 20 -22 6 -40 15 -40 20 0 6 -7 10 -15 10
-8 0 -15 5 -15 10 0 6 -5 10 -11 10 -12 0 -79 64 -79 75 0 3 -7 13 -15 21 -17
17 -22 174 -6 174 5 0 36 25 67 55 32 30 64 55 71 55 8 0 26 11 41 25 15 14
37 25 49 25 14 0 23 6 23 15 0 10 10 15 30 15 17 0 30 4 30 9 0 4 37 11 82 14
45 4 84 11 87 16 6 10 58 16 162 19 43 2 58 -2 63 -13z"/>
<path d="M7040 6877 c-14 -6 -27 -14 -30 -17 -3 -3 -24 -18 -47 -33 -24 -15
-43 -32 -43 -37 0 -5 -20 -28 -45 -52 -25 -24 -45 -50 -45 -60 0 -9 -6 -18
-12 -21 -9 -2 -13 -30 -13 -92 0 -62 4 -90 13 -93 6 -2 12 -10 12 -18 0 -8 5
-14 11 -14 6 0 22 -13 36 -30 13 -16 33 -30 43 -30 10 0 22 -4 25 -10 3 -5 42
-10 86 -10 66 0 82 3 99 20 45 45 11 120 -54 120 -19 0 -38 5 -41 10 -3 6 -17
10 -29 10 -41 0 -51 79 -15 113 10 10 19 23 19 29 0 21 71 78 98 78 44 1 62
22 62 73 0 41 -3 48 -30 62 -34 18 -65 18 -100 2z"/>
<path d="M3188 7203 c-10 -2 -18 -9 -18 -14 0 -5 -7 -9 -15 -9 -9 0 -18 -7
-21 -15 -4 -8 -16 -15 -29 -15 -13 0 -25 -7 -29 -15 -3 -8 -16 -15 -30 -15
-13 0 -26 -4 -28 -9 -1 -5 -97 -11 -213 -13 -253 -4 -255 -5 -255 -90 0 -49 4
-61 28 -83 27 -26 82 -33 109 -13 13 10 103 11 221 2 53 -4 87 -2 95 5 7 6 28
11 45 13 18 1 32 5 32 9 0 4 14 10 30 14 17 4 30 11 30 16 0 5 6 9 14 9 8 0
21 6 28 13 7 7 32 22 56 32 23 10 42 25 42 32 0 7 7 13 16 13 8 0 13 4 9 9 -3
5 -1 12 5 16 5 3 10 22 10 42 0 26 -5 36 -20 40 -11 3 -20 12 -20 19 0 14 -52
18 -92 7z"/>
<path d="M3603 7196 c-7 -8 -18 -16 -25 -18 -8 -3 -12 -25 -12 -66 0 -41 -4
-63 -13 -66 -7 -3 -13 -12 -13 -19 0 -8 -7 -20 -15 -27 -8 -7 -15 -23 -15 -36
0 -19 -5 -24 -24 -24 -13 0 -26 -3 -28 -7 -7 -17 -71 -43 -103 -43 -19 0 -38
-6 -42 -14 -6 -11 -51 -15 -217 -18 -156 -2 -210 -6 -214 -15 -2 -9 -26 -13
-72 -13 -51 0 -69 -4 -74 -15 -3 -8 -16 -15 -30 -15 -13 0 -26 -7 -30 -15 -3
-8 -17 -15 -31 -15 -14 0 -25 -4 -25 -9 0 -5 -11 -12 -25 -15 -26 -7 -54 -27
-106 -78 -15 -16 -32 -28 -38 -28 -6 0 -11 -5 -11 -10 0 -6 -11 -21 -25 -34
-14 -13 -25 -32 -25 -43 0 -12 -8 -23 -18 -25 -9 -3 -26 -22 -37 -44 -11 -21
-23 -40 -27 -42 -5 -2 -8 -12 -8 -23 0 -11 -9 -30 -20 -41 -15 -16 -19 -30
-14 -53 4 -22 1 -35 -10 -44 -23 -19 -23 -272 -1 -295 8 -8 15 -27 15 -43 0
-16 8 -36 18 -44 9 -9 33 -33 52 -55 46 -50 64 -60 128 -69 29 -4 52 -12 52
-17 0 -8 38 -9 118 -5 90 4 134 12 188 31 39 14 78 26 86 26 8 0 23 9 33 20 9
10 20 18 24 17 13 -4 101 26 101 34 0 5 10 9 23 9 12 0 31 7 41 15 11 8 30 15
42 15 13 0 25 4 29 9 3 5 19 12 35 16 17 4 30 10 30 14 0 4 17 13 38 20 51 18
126 54 130 63 2 4 20 10 40 14 20 4 43 13 50 21 7 7 22 13 33 13 10 0 19 3 19
8 0 4 20 16 45 27 25 11 45 23 45 28 0 4 6 7 14 7 16 0 61 36 120 97 60 61 66
70 66 92 0 10 7 21 15 25 9 3 15 18 15 40 0 21 6 36 15 40 12 4 15 26 15 111
0 85 -3 107 -15 111 -8 4 -15 17 -15 30 0 15 -6 24 -15 24 -8 0 -15 9 -15 20
0 18 -60 90 -75 90 -13 0 -75 68 -75 83 0 8 -6 18 -12 21 -10 5 -10 7 0 12 7
3 12 26 12 56 0 34 5 54 16 62 16 12 9 51 -7 40 -5 -3 -9 9 -9 25 0 18 -9 40
-20 51 -23 23 -79 26 -97 6z m42 -422 c11 -14 32 -38 48 -55 15 -16 27 -32 27
-35 0 -3 7 -12 15 -20 18 -18 22 -209 5 -219 -6 -4 -17 -22 -25 -42 -17 -40
-54 -83 -72 -83 -7 0 -13 -4 -13 -10 0 -5 -11 -10 -25 -10 -16 0 -25 -6 -25
-15 0 -8 -8 -15 -19 -15 -10 0 -24 -7 -31 -15 -7 -8 -23 -15 -36 -15 -13 0
-24 -4 -24 -10 0 -5 -8 -10 -18 -10 -10 0 -27 -6 -38 -14 -11 -8 -37 -17 -57
-21 -20 -4 -37 -10 -37 -14 0 -5 -44 -27 -90 -45 -8 -3 -22 -10 -30 -14 -43
-25 -62 -32 -81 -32 -11 0 -27 -7 -35 -15 -9 -8 -24 -15 -35 -15 -10 0 -19 -4
-19 -10 0 -5 -16 -12 -35 -16 -19 -3 -35 -10 -35 -15 0 -5 -11 -9 -24 -9 -14
0 -31 -7 -40 -15 -8 -8 -25 -15 -38 -15 -13 0 -33 -7 -44 -15 -10 -8 -34 -15
-53 -15 -18 0 -54 -7 -80 -17 -45 -16 -121 -13 -121 5 0 5 -17 9 -37 10 -21 2
-39 7 -41 12 -2 6 -8 10 -13 10 -6 0 -18 8 -28 18 -21 19 -25 69 -22 240 1 74
4 92 16 92 9 0 15 9 15 24 0 13 7 26 15 30 8 3 15 16 15 30 0 13 7 26 15 30 8
3 15 12 15 20 0 30 168 182 212 191 15 4 28 11 28 16 0 5 20 9 44 9 25 0 48 6
55 14 9 10 57 15 208 18 142 3 198 7 201 16 2 8 28 12 77 12 52 0 76 4 85 15
7 8 25 15 40 15 16 0 30 7 34 15 3 8 17 15 31 15 14 0 25 5 25 10 0 6 17 10
38 10 28 0 42 -7 57 -26z"/>
<path d="M3083 6612 c-13 -2 -23 -7 -23 -12 0 -5 -13 -11 -30 -15 -16 -4 -30
-11 -30 -16 0 -5 -5 -9 -10 -9 -14 0 -110 -102 -110 -116 0 -7 -7 -15 -16 -18
-14 -6 -16 -17 -10 -82 6 -68 10 -79 39 -105 17 -16 39 -29 48 -29 9 0 22 -7
29 -15 9 -11 35 -15 104 -15 105 0 126 13 126 76 0 56 -43 86 -101 70 -28 -7
-41 -7 -53 3 -16 14 -23 71 -8 71 5 0 15 11 22 25 10 19 21 25 47 25 53 0 123
51 123 89 0 34 -42 69 -85 73 -22 2 -50 2 -62 0z"/>
<path d="M5926 4963 c-33 -35 -42 -74 -22 -89 9 -6 16 -19 16 -28 0 -17 10
-29 92 -116 42 -44 112 -100 127 -100 6 0 11 -6 11 -12 0 -7 14 -22 30 -33 16
-11 30 -23 30 -27 0 -5 5 -8 10 -8 13 0 28 -12 78 -62 91 -91 142 -146 142
-156 0 -5 7 -15 15 -22 8 -7 15 -20 15 -30 0 -10 7 -20 15 -24 9 -3 15 -18 15
-35 0 -17 6 -34 14 -38 7 -5 16 -34 19 -68 3 -33 11 -61 17 -63 5 -2 10 -13
10 -24 0 -29 41 -68 72 -68 14 0 39 11 55 24 27 23 28 25 25 115 -3 71 -7 91
-18 91 -10 0 -14 12 -14 40 0 30 -4 40 -16 40 -10 0 -13 6 -9 18 3 11 -3 29
-15 45 -11 14 -20 33 -20 42 0 10 -11 28 -25 41 -14 13 -25 28 -25 34 0 13
-97 110 -111 110 -5 0 -9 7 -9 15 0 8 -5 15 -11 15 -6 0 -29 18 -50 40 -22 22
-42 40 -45 40 -3 0 -22 18 -43 40 -20 22 -41 40 -47 40 -5 0 -18 11 -28 25
-10 14 -27 25 -38 25 -10 0 -21 7 -24 15 -4 8 -10 15 -15 15 -16 0 -49 34 -49
51 0 9 -7 19 -15 23 -8 3 -15 13 -15 23 0 27 -49 63 -86 63 -23 0 -41 -8 -58
-27z"/>
<path d="M4260 4901 c0 -5 -9 -11 -20 -14 -14 -3 -20 -14 -20 -31 0 -14 -4
-26 -9 -26 -5 0 -12 -12 -16 -27 -8 -34 -65 -91 -105 -105 -17 -5 -30 -14 -30
-19 0 -5 -8 -9 -19 -9 -10 0 -24 -7 -31 -15 -7 -8 -20 -15 -30 -15 -10 0 -23
-7 -30 -15 -7 -8 -16 -15 -21 -15 -24 0 -109 -105 -109 -135 0 -12 -7 -28 -15
-35 -8 -7 -15 -25 -15 -40 0 -16 -4 -30 -9 -32 -5 -1 -10 -23 -12 -48 -1 -25
-9 -56 -18 -70 -21 -34 -18 -160 4 -176 8 -6 15 -21 15 -33 0 -11 4 -21 9 -21
5 0 13 -10 17 -22 7 -22 42 -57 57 -58 4 0 18 -11 31 -25 71 -76 192 -48 182
42 -4 37 -56 93 -87 93 -9 0 -26 16 -38 36 -27 45 -31 191 -6 200 9 4 15 19
15 39 0 21 6 35 16 39 9 4 14 15 12 29 -3 25 46 87 69 87 7 0 13 5 13 10 0 6
7 10 16 10 15 0 122 53 152 75 31 24 92 90 92 101 0 6 7 14 15 18 8 3 15 15
15 26 0 11 4 20 9 20 15 0 51 65 51 93 0 14 -11 37 -24 51 -19 21 -32 26 -75
26 -28 0 -51 -4 -51 -9z"/>
<path d="M4553 4302 c-29 -2 -56 -9 -63 -17 -7 -8 -26 -15 -42 -15 -16 0 -35
-6 -43 -12 -7 -7 -24 -21 -38 -31 -34 -25 -60 -82 -52 -114 9 -36 32 -56 99
-88 52 -24 67 -26 124 -21 35 4 73 11 85 17 11 6 61 12 111 13 76 2 97 -1 126
-18 19 -11 37 -23 40 -27 3 -3 22 -15 42 -26 21 -11 35 -23 31 -27 -3 -3 2 -6
12 -6 10 0 26 -6 34 -14 17 -14 94 -54 146 -76 17 -7 45 -14 64 -16 19 -2 39
-8 45 -14 12 -12 196 -14 196 -1 0 5 19 12 43 16 23 4 51 14 62 21 11 8 29 14
42 14 29 0 72 20 102 48 13 12 30 22 37 22 7 0 20 8 30 18 16 15 43 17 245 19
184 1 233 5 258 17 16 9 36 16 44 16 20 0 67 60 67 86 0 13 -7 29 -15 38 -8 8
-15 19 -15 25 0 6 -5 11 -10 11 -6 0 -21 10 -33 23 -50 51 -75 57 -236 57
-126 0 -153 -3 -157 -15 -4 -8 -18 -15 -34 -15 -15 0 -30 -7 -34 -15 -3 -9
-12 -12 -21 -9 -10 4 -24 -2 -36 -15 -11 -11 -26 -21 -34 -21 -8 0 -15 -4 -15
-10 0 -5 -13 -10 -30 -10 -16 0 -30 -5 -30 -11 0 -5 -13 -15 -30 -20 -16 -6
-30 -15 -30 -20 0 -5 -7 -9 -15 -9 -8 0 -15 -4 -15 -10 0 -5 -8 -10 -19 -10
-10 0 -24 -7 -31 -15 -7 -8 -21 -15 -32 -15 -10 0 -21 -7 -24 -15 -5 -12 -30
-15 -135 -15 -79 0 -129 4 -129 10 0 6 -5 10 -11 10 -34 0 -161 75 -218 129
-36 34 -71 61 -79 61 -7 0 -10 5 -7 10 3 6 -3 10 -14 10 -11 0 -26 7 -35 15
-8 8 -19 15 -25 15 -6 0 -11 7 -11 15 0 8 -6 15 -14 15 -8 0 -16 6 -18 12 -5
13 -129 17 -255 10z"/>
<path d="M6882 3825 c-23 -26 -30 -65 -12 -65 6 0 10 -8 10 -18 0 -21 26 -45
98 -93 29 -19 52 -37 52 -41 0 -5 7 -8 15 -8 8 0 15 -4 15 -10 0 -5 14 -10 30
-10 17 0 30 -4 30 -8 0 -12 105 -42 145 -42 19 0 58 -6 87 -14 60 -15 236 -13
267 4 11 5 44 10 73 10 32 0 62 6 74 15 10 8 27 15 37 15 20 0 53 18 79 43 27
25 26 107 -2 114 -11 3 -20 9 -20 13 0 18 -59 21 -89 6 -16 -9 -41 -16 -55
-16 -13 0 -26 -6 -28 -12 -6 -17 -387 -25 -397 -9 -7 10 -62 25 -138 38 -19 3
-33 11 -33 19 0 8 -5 14 -10 14 -6 0 -21 11 -34 25 -13 14 -28 25 -35 25 -6 0
-11 7 -11 15 0 12 -14 15 -63 15 -55 0 -66 -3 -85 -25z"/>
<path d="M2995 3647 c-16 -7 -40 -22 -52 -34 -12 -13 -25 -23 -29 -23 -4 0
-36 -29 -71 -65 -34 -35 -74 -67 -88 -71 -14 -3 -25 -10 -25 -15 0 -13 -237
-11 -245 1 -3 6 -26 10 -50 10 -29 0 -45 5 -49 15 -8 22 -208 22 -230 -1 -32
-32 -39 -54 -22 -73 9 -10 16 -24 16 -32 0 -24 65 -49 125 -49 30 0 55 -4 55
-10 0 -5 12 -10 26 -10 14 0 40 -6 57 -14 61 -27 280 -47 300 -27 6 6 20 11
31 11 39 0 123 50 189 113 37 36 67 68 67 72 0 13 50 55 66 55 7 0 14 7 14 15
0 8 6 15 14 15 9 0 15 14 18 39 5 53 2 59 -39 76 -40 17 -37 17 -78 2z"/>
</g>
</svg>
